HIERARCHY
ROOT pelvis
{
  OFFSET 0 100 0
  CHANNELS 6 Xposition Yposition Zposition Zrotation Xrotation Yrotation
  JOINT pelvis_right_femur
  {
    OFFSET -10.78128 -3.44521 -0.5502486
    CHANNELS 3 Zrotation Xrotation Yrotation
    JOINT right_femur_tibia
    {
      OFFSET -0.8047443 -44.0398 -0.1307829
      CHANNELS 3 Zrotation Xrotation Yrotation
      JOINT right_tibia_foot
      {
        OFFSET 3.006224 -47.83518 -5
        CHANNELS 3 Zrotation Xrotation Yrotation
        End Site
        {
          OFFSET 0 -5 15
        }
      }
    }
  }
  JOINT pelvis_left_femur
  {
    OFFSET 10.78128 -3.44521 -0.5502486
    CHANNELS 3 Zrotation Xrotation Yrotation
    JOINT left_femur_tibia
    {
      OFFSET 0.8047443 -44.0398 -0.1307829
      CHANNELS 3 Zrotation Xrotation Yrotation
      JOINT left_tibia_foot
      {
        OFFSET -4.370144 -48.10324 -4.275266
        CHANNELS 3 Zrotation Xrotation Yrotation
        End Site
        {
          OFFSET 0 -5 15
        }
      }
    }
  }
  JOINT pelvis_spine1
  {
    OFFSET 0 6.468898 -3.129235
    CHANNELS 3 Zrotation Xrotation Yrotation
    JOINT spine1
    {
      OFFSET 0 23.15396 4.99043
      CHANNELS 3 Zrotation Xrotation Yrotation
      JOINT spine2
      {
        OFFSET 0 20.79997 -5.064912
        CHANNELS 3 Zrotation Xrotation Yrotation
        JOINT neck
        {
          OFFSET 0 14.38658 9.616178
          CHANNELS 3 Zrotation Xrotation Yrotation
          End Site
          {
            OFFSET 0 20 0
          }
        }
      }
      JOINT right_manubrium
      {
        OFFSET -5.722621 16.35077 3.967754
        CHANNELS 3 Zrotation Xrotation Yrotation
        JOINT right_clavicle
        {
          OFFSET -13.16364 1.694482 -4.693211
          CHANNELS 3 Zrotation Xrotation Yrotation
          JOINT right_humerus
          {
            OFFSET -28.5034 -0.3100689 -2.792744
            CHANNELS 3 Zrotation Xrotation Yrotation
            JOINT right_radius
            {
              OFFSET -25.15693 0.02248979 -1.271978
              CHANNELS 3 Zrotation Xrotation Yrotation
              End Site
              {
                OFFSET -15 0 0
              }
            }
          }
        }
      }
      JOINT left_manubrium
      {
        OFFSET 5.722621 16.35077 3.967754
        CHANNELS 3 Zrotation Xrotation Yrotation
        JOINT left_clavicle
        {
          OFFSET 13.16364 1.694482 -4.693211
          CHANNELS 3 Zrotation Xrotation Yrotation
          JOINT left_humerus
          {
            OFFSET 29.39168 -1.063119 -2.237045
            CHANNELS 3 Zrotation Xrotation Yrotation
            JOINT left_radius
            {
              OFFSET 24.59957 -0.9528479 0.9047498
              CHANNELS 3 Zrotation Xrotation Yrotation
              End Site
              {
                OFFSET 15 -0 -0
              }
            }
          }
        }
      }
    }
  }
}
MOTION
Frames: 11
Frame Time: 0.0416666666667
0 103.5113 0 1.605586 -1.685514 -0.1413219 2.53959 -10.68389 9.558804 -1.09243e-09 35.62118 7.60177e-10 -6.383077 -18.84507 -4.603584 -7.274829 7.414046 -22.58078 -3.435286e-10 5.588762 -2.288383e-09 8.983699 -16.65117 28.79058 -4.822865 -4.103458 4.918878 2.48327 9.112045 -7.825897 1.305889 22.76204 6.429269 3.062443 -23.16444 8.637534 6.231503 -19.85333 11.42097 85.17833 36.82816 -18.13964 -3.330629e-11 9.631535e-11 16.65806 -7.54826 8.676918 4.648565 5.477486 -19.49765 -1.014503 -95.21515 29.63092 23.17762 4.334742e-10 -4.134992e-11 -14.67688 3.241319 17.78995 9.673066
0.2686708 103.6192 1.399912 1.33009 -1.53025 -0.1502961 2.844259 -13.34348 9.367393 -9.239581e-10 38.30281 6.973556e-10 -6.141205 -17.76115 -4.585985 -7.167191 8.863064 -22.59528 -1.038001e-09 5.513409 -1.440337e-09 8.435675 -17.28598 27.59548 -4.538728 -3.809837 4.628178 2.488698 9.120589 -7.940925 1.254601 22.66221 6.598118 2.982666 -23.39211 8.882016 6.337064 -19.71622 11.47709 85.75551 36.52534 -18.67262 -1.199024e-10 1.259531e-10 16.66748 -7.363109 8.833847 4.587083 5.366337 -19.54873 -1.204846 -95.13111 29.71911 23.22278 3.114048e-10 -7.071177e-11 -15.03974 3.168462 17.61571 9.929677
0.5541458 103.7625 2.86908 0.9846596 -1.155634 -0.006202754 3.307414 -16.34096 9.007601 -6.464642e-10 39.06958 5.136864e-10 -5.996482 -16.44339 -4.360526 -6.958425 10.08923 -22.42723 -1.639713e-09 5.465973 -5.095692e-10 7.700257 -18.05775 26.24926 -4.163794 -3.439628 4.327673 2.540163 9.087164 -8.039023 1.195233 22.50055 6.810497 2.971032 -23.7219 9.110704 6.366857 -19.54739 11.5374 86.19776 36.19757 -19.1769 -1.758498e-10 1.718435e-10 16.53466 -7.317995 8.942514 4.623372 5.412739 -19.68724 -1.352771 -94.96687 29.64876 23.13218 1.755303e-10 -9.975942e-11 -15.60621 3.22679 17.41762 9.998196
0.8461827 103.8628 4.50456 0.6084026 -0.5305079 0.2493732 3.878985 -19.50624 8.519746 -2.864966e-10 37.84301 2.545055e-10 -5.87297 -14.80348 -3.901406 -6.713674 11.15874 -22.11763 -1.947559e-09 5.542 1.626051e-10 6.811217 -18.95913 24.87264 -3.738889 -3.078494 4.05733 2.630943 9.008657 -8.119118 1.141079 22.28308 7.075357 3.058723 -24.1742 9.32819 6.327049 -19.33201 11.58932 86.56131 35.86373 -19.73067 -1.848186e-10 1.923045e-10 16.22031 -7.468856 8.98102 4.742887 5.645114 -19.91603 -1.42836 -94.78141 29.41984 22.89111 4.812582e-11 -1.306654e-10 -16.42186 3.407799 17.20212 9.881867
1.128822 103.8256 6.335433 0.2595594 0.243287 0.5561245 4.50509 -22.61618 7.996593 8.880426e-11 34.62683 -2.300597e-11 -5.765258 -12.97364 -3.254017 -6.486301 11.98342 -21.72141 -2.047873e-09 5.738765 5.693496e-10 5.943103 -19.95037 23.7056 -3.327185 -2.741355 3.852916 2.75431 8.92076 -8.171644 1.097227 22.01184 7.372897 3.252219 -24.68439 9.505559 6.228654 -19.08434 11.6356 86.69965 35.5528 -20.27727 -1.542593e-10 1.915472e-10 15.71905 -7.791242 8.915273 4.901802 6.060286 -20.22417 -1.445826 -94.48046 29.05711 22.44388 -6.821334e-11 -1.626921e-10 -17.46129 3.698266 16.9813 9.564983
1.390857 103.6049 8.405916 -0.08680907 1.126361 0.8699095 5.153812 -25.53313 7.484347 4.37154e-10 30.1744 -2.788543e-10 -5.709926 -11.03202 -2.521989 -6.250728 12.65179 -21.25073 -1.913373e-09 6.086451 7.503733e-10 5.04506 -20.89974 22.63711 -2.924916 -2.453147 3.683421 2.907105 8.816199 -8.215721 1.061822 21.69055 7.675042 3.506416 -25.22052 9.644267 6.105521 -18.80167 11.66559 86.67269 35.30439 -20.80105 -8.758774e-11 1.790165e-10 15.08927 -8.203663 8.813724 5.091265 6.566731 -20.55512 -1.399116 -94.10609 28.603 21.90162 -1.695657e-10 -1.85577e-10 -18.54643 4.029451 16.73753 9.154342
1.623421 103.1873 10.82301 -0.4454575 2.051427 1.163152 5.760028 -27.99856 6.949055 7.160686e-10 25.07104 -4.700338e-10 -5.725443 -9.222038 -1.845754 -5.959935 13.2332 -20.64189 -1.399684e-09 6.674277 6.5352e-10 3.996653 -21.64171 21.49675 -2.525189 -2.256025 3.524411 3.071724 8.657834 -8.269792 1.043655 21.37186 7.927423 3.748879 -25.6986 9.737051 5.940068 -18.46585 11.6504 86.68611 35.08888 -21.31973 1.800751e-11 1.496558e-10 14.38687 -8.689126 8.777115 5.317157 7.083159 -20.87996 -1.276599 -93.70974 28.08744 21.26281 -2.289066e-10 -1.940142e-10 -19.58183 4.357562 16.46575 8.722903
1.828427 102.6395 13.67388 -0.8340683 2.880314 1.446465 6.272268 -29.86067 6.447271 9.127738e-10 20.8251 -6.067529e-10 -5.845107 -7.708566 -1.380005 -5.608222 13.81476 -19.94849 -6.540277e-10 7.733134 4.545266e-10 2.757361 -21.97238 20.13841 -2.123625 -2.135703 3.332553 3.225253 8.45533 -8.346222 1.034728 21.10659 8.092987 3.903405 -26.0582 9.79188 5.794077 -18.07274 11.59473 86.85746 34.94611 -21.80403 1.332664e-10 1.245311e-10 13.69864 -9.100521 8.876379 5.543025 7.44733 -21.11924 -1.108849 -93.35529 27.62532 20.67468 -2.494609e-10 -1.804533e-10 -20.31795 4.595081 16.16963 8.423844
2.013564 102.0864 17.02291 -1.263706 3.525965 1.743745 6.669095 -30.91837 5.989259 1.018819e-09 18.20234 -7.088303e-10 -6.149769 -6.615408 -1.192576 -5.182859 14.34643 -19.17273 2.133643e-10 9.51501 2.672236e-10 1.367861 -21.67021 18.48695 -1.712542 -2.093938 3.089608 3.357937 8.232353 -8.450292 1.01907 20.89804 8.134013 3.923709 -26.25228 9.775934 5.697201 -17.62896 11.50235 87.13022 34.91172 -22.1838 2.38044e-10 1.20499e-10 13.04999 -9.319831 9.139004 5.738067 7.542491 -21.23442 -0.9264291 -92.96533 27.25431 20.22157 -2.365013e-10 -1.38607e-10 -20.57835 4.732608 15.86271 8.292072
2.201065 101.724 20.93023 -1.73019 3.918069 2.087843 6.934727 -30.92832 5.597092 1.04049e-09 17.99382 -8.065494e-10 -6.666183 -5.789264 -1.278404 -4.719033 14.6787 -18.31088 1.094571e-09 12.49553 9.291975e-11 -0.1190244 -20.5353 16.54805 -1.291249 -2.12679 2.811451 3.450626 8.046641 -8.568289 0.9799266 20.74598 8.054902 3.81324 -26.28569 9.672323 5.705404 -17.14604 11.4023 87.4585 35.03576 -22.40892 3.122301e-10 1.384719e-10 12.44753 -9.34567 9.580412 5.911044 7.276893 -21.19071 -0.7563495 -92.55452 26.97404 20.05162 -2.059036e-10 -6.170873e-11 -20.1843 4.747918 15.52406 8.383293
2.410217 101.6948 25.4495 -2.213676 4.039761 2.460915 7.198733 -29.76541 5.302747 1.011268e-09 19.05387 -9.064758e-10 -7.313982 -5.364969 -1.539496 -4.198155 14.41518 -17.28616 1.954088e-09 17.11669 -2.204839e-10 -1.687818 -18.60172 14.52542 -0.8184007 -2.191889 2.606634 3.49786 7.933102 -8.649494 0.9407051 20.6714 7.86094 3.609104 -26.18267 9.484902 5.754498 -16.69933 11.33353 87.85377 35.17812 -22.4676 3.60461e-10 1.596936e-10 11.97378 -9.299694 10.16796 6.06603 6.74775 -21.03908 -0.5990758 -92.3351 26.70788 20.24167 -1.590704e-10 3.400266e-11 -19.28965 4.6449 15.16091 8.658828
